<svg width="120" height="18" viewBox="0 0 120 18" fill="none" xmlns="http://www.w3.org/2000/svg">
    <path
        d="M6.81774 18C4.9866 18 3.49062 17.6311 2.3298 16.8934C1.18534 16.1393 0.408737 15.0656 0 13.6721L4.24269 11.4836C4.76588 12.7951 5.7632 13.4508 7.23465 13.4508C8.39547 13.4508 9.0331 13.1475 9.14754 12.541C9.21294 12.1475 9.00857 11.8443 8.53444 11.6311C8.27284 11.5 8.04395 11.4016 7.84776 11.3361C7.63521 11.2541 7.03846 11.0656 6.05749 10.7705C3.01648 9.72131 1.73305 7.83607 2.20718 5.11475C2.46877 3.59016 3.22085 2.35246 4.46341 1.40164C5.68962 0.467213 7.1856 0 8.95135 0C10.4228 0 11.6817 0.344262 12.7281 1.03279C13.7745 1.72131 14.5674 2.71311 15.1069 4.0082L10.9623 6.22131C10.5373 5.10656 9.76065 4.54918 8.63253 4.54918C7.76601 4.54918 7.27553 4.84426 7.16108 5.43443C7.07933 5.81148 7.22648 6.10656 7.60252 6.31967C8.0276 6.58197 8.76333 6.88525 9.8097 7.22951C11.1667 7.68852 12.2212 8.2541 12.9733 8.92623C13.9543 9.79508 14.2976 11.1311 14.0033 12.9344C13.7091 14.5902 12.9406 15.8525 11.6981 16.7213C10.4555 17.5738 8.82873 18 6.81774 18Z"
        fill="#C3FD2B"
    />
    <path
        d="M17.8031 0.393442H24.5472C26.1985 0.393442 27.5555 0.983606 28.6183 2.16393C29.6646 3.31148 30.057 4.86066 29.7954 6.81148C29.5175 8.63115 28.7409 10.0738 27.4656 11.1393C26.174 12.2049 24.5227 12.7377 22.5117 12.7377H20.5498L19.6914 17.6066H14.7866L17.8031 0.393442ZM24.9396 6.56557C25.0214 6.13934 24.9396 5.80328 24.6944 5.55738C24.4491 5.29508 24.1221 5.16393 23.7134 5.16393H21.8741L21.3836 7.96721H23.3455C23.7379 7.96721 24.0813 7.84426 24.3756 7.59836C24.6862 7.33607 24.8742 6.9918 24.9396 6.56557Z"
        fill="#C3FD2B"
    />
    <path
        d="M38.5136 18C36.6661 18 35.072 17.541 33.7314 16.623C32.4398 15.7049 31.5242 14.5492 30.9847 13.1557C30.4615 11.7623 30.3225 10.2787 30.5677 8.70492C30.9601 6.32787 32.0801 4.28689 33.9276 2.58197C35.7914 0.860656 38.0803 0 40.7944 0C42.1677 0 43.4103 0.262295 44.522 0.786885C45.6502 1.29508 46.5412 2 47.1952 2.90164C48.5522 4.7541 49.0427 6.85246 48.6666 9.19672C48.2906 11.5902 47.187 13.6557 45.3559 15.3934C43.5574 17.1311 41.2767 18 38.5136 18ZM36.0857 12C36.7397 12.7869 37.6716 13.1803 38.8815 13.1803C40.0913 13.1803 41.1622 12.7869 42.0941 12C43.0261 11.1967 43.5983 10.1967 43.8108 9C44.0234 7.80328 43.8027 6.81148 43.1487 6.02459C42.4947 5.22131 41.5628 4.81967 40.3529 4.81967C39.1267 4.81967 38.0558 5.22131 37.1402 6.02459C36.2083 6.81148 35.6361 7.80328 35.4235 9C35.211 10.1967 35.4317 11.1967 36.0857 12Z"
        fill="#C3FD2B"
    />
    <path
        d="M64.362 6.66393C63.9859 8.77869 62.8415 10.3197 60.9286 11.2869L63.1357 17.582H58.2309L56.4652 12.1721H54.8956L53.9392 17.582H49.0343L52.0753 0.368852H58.9421C60.7242 0.368852 62.1548 0.967213 63.2338 2.16393C64.3129 3.34426 64.6889 4.84426 64.362 6.66393ZM58.1328 4.89344H56.1709L55.6068 8.09016H57.6178C58.0919 8.10656 58.4925 7.97541 58.8195 7.69672C59.1628 7.41803 59.3754 7.02459 59.4571 6.51639C59.5389 6.0082 59.4571 5.61475 59.2119 5.33607C58.983 5.04098 58.6233 4.89344 58.1328 4.89344Z"
        fill="#C3FD2B"
    />
    <path
        d="M66.0382 0.393442H79.0361L78.2023 5.16393H74.1558L71.9731 17.6066H67.0682L69.2509 5.16393H65.2044L66.0382 0.393442Z"
        fill="#C3FD2B"
    />
    <path d="M78.688 17.6066V0.393442H83.0778V17.6066H78.688Z" fill="white" />
    <path
        d="M94.0662 17.9754C91.483 17.9754 89.3412 17.123 87.6408 15.418C85.9568 13.7131 85.1148 11.5738 85.1148 9C85.1148 6.42623 85.9568 4.29508 87.6408 2.60656C89.3248 0.885246 91.4666 0.0245898 94.0662 0.0245898C95.6194 0.0245898 97.0581 0.393442 98.3824 1.13115C99.7068 1.86885 100.745 2.86066 101.497 4.10656L97.6958 6.29508C97.3688 5.68852 96.8783 5.21311 96.2243 4.86885C95.5867 4.5082 94.8673 4.32787 94.0662 4.32787C92.7092 4.32787 91.5974 4.7623 90.7309 5.63115C89.8971 6.5 89.4801 7.62295 89.4801 9C89.4801 10.4098 89.8971 11.541 90.7309 12.3934C91.5811 13.2459 92.6928 13.6721 94.0662 13.6721C94.8673 13.6721 95.5867 13.5 96.2243 13.1557C96.8783 12.7951 97.3688 12.3033 97.6958 11.6803L101.497 13.8934C100.745 15.1557 99.7068 16.1557 98.3824 16.8934C97.0745 17.6148 95.6357 17.9754 94.0662 17.9754Z"
        fill="white"
    />
    <path
        d="M117.376 15.3934C115.627 17.1148 113.501 17.9754 111 17.9754C108.465 17.9754 106.332 17.1148 104.599 15.3934C102.866 13.6557 101.999 11.5246 101.999 9C101.999 6.47541 102.866 4.35246 104.599 2.63115C106.332 0.893442 108.465 0.0245898 111 0.0245898C113.517 0.0245898 115.643 0.893442 117.376 2.63115C119.125 4.35246 120 6.47541 120 9C120 11.5082 119.125 13.6393 117.376 15.3934ZM107.689 12.3689C108.588 13.2377 109.692 13.6721 111 13.6721C112.308 13.6721 113.411 13.2377 114.31 12.3689C115.193 11.4836 115.635 10.3607 115.635 9C115.635 7.62295 115.193 6.5082 114.31 5.65574C113.427 4.77049 112.324 4.32787 111 4.32787C109.675 4.32787 108.572 4.77049 107.689 5.65574C106.806 6.5082 106.365 7.62295 106.365 9C106.365 10.3607 106.806 11.4836 107.689 12.3689Z"
        fill="white"
    />
</svg>
