<svg width="18" height="16" viewBox="0 0 18 16" fill="none" xmlns="http://www.w3.org/2000/svg">
    <path
        d="M1 3.57143H3.66667M3.66667 3.57143C3.66667 4.99159 4.86057 6.14286 6.33333 6.14286C7.80609 6.14286 9 4.99159 9 3.57143C9 2.15127 7.80609 1 6.33333 1C4.86057 1 3.66667 2.15127 3.66667 3.57143ZM1 12.1429H6M14.3333 12.1429H17M14.3333 12.1429C14.3333 13.563 13.1394 14.7143 11.6667 14.7143C10.1939 14.7143 9 13.563 9 12.1429C9 10.7227 10.1939 9.57143 11.6667 9.57143C13.1394 9.57143 14.3333 10.7227 14.3333 12.1429ZM12 3.57143H17"
        stroke="white"
        stroke-width="2"
        stroke-linecap="round"
    />
</svg>
