<svg width="14" height="16" viewBox="0 0 14 16" fill="none" xmlns="http://www.w3.org/2000/svg">
    <path
        opacity="0.25"
        d="M9.01764 1.18987C8.34447 1.00106 7.63413 0.900024 6.89999 0.900024C6.16586 0.900024 5.45552 1.00106 4.78235 1.18987M6.89999 7.90002V5.80002M12.9 8.95002C12.9 12.2361 10.2137 14.9 6.89999 14.9C3.58629 14.9 0.899994 12.2361 0.899994 8.95002C0.899994 5.66393 3.58629 3.00002 6.89999 3.00002C10.2137 3.00002 12.9 5.66393 12.9 8.95002ZM7.95882 9.30002C7.95882 9.87992 7.48477 10.35 6.89999 10.35C6.31522 10.35 5.84117 9.87992 5.84117 9.30002C5.84117 8.72013 6.31522 8.25002 6.89999 8.25002C7.48477 8.25002 7.95882 8.72013 7.95882 9.30002Z"
        stroke="white"
        stroke-width="1.8"
        stroke-linecap="round"
    />
</svg>
