<svg width="14" height="16" viewBox="0 0 14 16" fill="none" xmlns="http://www.w3.org/2000/svg">
    <path
        d="M7.35281 0.0133332C8.23238 0 9.10525 0.00666658 9.97811 0C10.0318 1.01999 10.4011 2.05997 11.1531 2.77997C11.9051 3.51996 12.966 3.85995 14 3.97328V6.65992C13.0331 6.62658 12.0596 6.42659 11.18 6.01326C10.7973 5.83993 10.4414 5.61993 10.0923 5.39327C10.0855 7.33991 10.099 9.28655 10.0788 11.2265C10.0251 12.1598 9.71625 13.0865 9.17239 13.8532C8.29281 15.1331 6.76866 15.9665 5.20422 15.9931C4.24407 16.0465 3.28392 15.7865 2.46477 15.3065C1.10847 14.5132 0.155035 13.0598 0.0140341 11.4999C0.000605427 11.1665 -0.0061089 10.8332 0.00731977 10.5065C0.128178 9.23988 0.759326 8.02657 1.73962 7.19991C2.8542 6.23992 4.41192 5.77993 5.86894 6.05326C5.88236 7.03991 5.84208 8.02657 5.84208 9.01322C5.17736 8.79989 4.3985 8.85989 3.81435 9.25988C3.39135 9.53321 3.06906 9.95321 2.9012 10.4265C2.7602 10.7665 2.80048 11.1399 2.8072 11.4999C2.96834 12.5932 4.02921 13.5132 5.15722 13.4132C5.90922 13.4065 6.62766 12.9732 7.01709 12.3398C7.14466 12.1198 7.28566 11.8932 7.29238 11.6332C7.35952 10.4399 7.33266 9.25322 7.33938 8.0599C7.34609 5.37327 7.33266 2.6933 7.35281 0.0133332Z"
        fill="white"
    />
</svg>
