<svg width="20" height="14" viewBox="0 0 20 14" fill="none" xmlns="http://www.w3.org/2000/svg">
    <path
        fill-rule="evenodd"
        clip-rule="evenodd"
        d="M10.0455 0C10.6137 0.000991132 16.332 0.0208138 17.813 0.417267C18.674 0.645799 19.351 1.32146 19.582 2.1859C19.9833 3.68348 19.9994 6.73778 20 6.97973V7.01033C19.9994 7.25301 19.9833 10.3165 19.582 11.814C19.351 12.6785 18.674 13.3542 17.813 13.5827C16.2852 13.9917 10.2483 13.9998 10.0074 14H9.99258C9.75168 13.9998 3.71378 13.9917 2.18498 13.5827C1.32498 13.3542 0.646975 12.6785 0.416974 11.814C0.0166533 10.3165 0.000640514 7.25301 0 7.01033V6.97973C0.000640514 6.73778 0.0166533 3.68348 0.416974 2.1859C0.646975 1.32146 1.32498 0.645799 2.18498 0.417267C3.66698 0.0208138 9.38624 0.000991132 9.95446 0H10.0455ZM7.95399 4.04397V9.95599L13.182 6.99501L7.95399 4.04397Z"
        fill="white"
    />
</svg>
